<svg xmlns="http://www.w3.org/2000/svg"
     width="203" height="202" viewBox="0 0 203 202"
     role="img" aria-label="Ekan logo">
  <rect x="1.5" y="1" width="200" height="200" rx="50"
        fill="#0F172A"/>
  <path d="M 96 85 L 86 90 L 83 93 L 83 94 L 79 99 L 79 101 L 78 102 L 78 105 L 77 106 L 77 115 L 78 116 L 78 119 L 81 125 L 86 131 L 96 136 L 107 136 L 117 131 L 120 128 L 123 122 L 121 121 L 117 121 L 116 120 L 113 120 L 112 119 L 110 122 L 109 122 L 105 125 L 98 125 L 92 121 L 89 115 L 90 114 L 126 114 L 126 106 L 125 105 L 125 102 L 122 96 L 116 89 L 108 85 Z M 89 103 L 90 101 L 95 96 L 99 94 L 104 94 L 108 96 L 113 101 L 114 103 L 114 105 L 113 106 L 90 106 L 89 105 Z"
        fill="#FFFFFF" fill-rule="evenodd"/>
</svg>
